<svg width="80" height="80" viewBox="0 0 80 80" fill="none" xmlns="http://www.w3.org/2000/svg">
<path fill-rule="evenodd" clip-rule="evenodd" d="M40.9818 14.7252C44.0503 14.2527 46.3999 11.6008 46.3999 8.40005C46.3999 4.86543 43.5345 2.00006 39.9999 2.00006C36.4653 2.00006 33.5999 4.86543 33.5999 8.40005C33.5999 11.6008 35.9496 14.2528 39.0182 14.7252V19.6004C39.0182 19.6632 39.0241 19.7246 39.0353 19.7842L21.9606 28.3215C21.6279 28.4878 21.4178 28.8278 21.4178 29.1997V38.6181H16.7251C16.2528 35.5495 13.6008 33.1998 10.4 33.1998C6.86537 33.1998 4 36.0652 4 39.5998C4 43.1344 6.86537 45.9998 10.4 45.9998C13.6007 45.9998 16.2527 43.6502 16.7251 40.5817H21.4178V49.9997C21.4178 50.359 21.6141 50.6895 21.9295 50.8616L39.0397 60.1944C39.0256 60.2607 39.0182 60.3294 39.0182 60.3999V65.2749C35.9496 65.7473 33.5999 68.3993 33.5999 71.6001C33.5999 75.1347 36.4653 78.0001 39.9999 78.0001C43.5345 78.0001 46.3999 75.1347 46.3999 71.6001C46.3999 68.3993 44.0503 65.7474 40.9818 65.2749V60.3999C40.9818 60.3293 40.9743 60.2604 40.9602 60.1941L58.0697 50.8616C58.3852 50.6895 58.5814 50.359 58.5814 49.9997V40.5817H63.2747C63.7471 43.6502 66.3991 45.9998 69.5998 45.9998C73.1344 45.9998 75.9998 43.1344 75.9998 39.5998C75.9998 36.0652 73.1344 33.1998 69.5998 33.1998C66.399 33.1998 63.7471 35.5495 63.2747 38.6181H58.5814V29.1997C58.5814 28.8278 58.3713 28.4878 58.0387 28.3215L40.9646 19.7845C40.9759 19.7248 40.9818 19.6633 40.9818 19.6004V14.7252ZM44.4363 8.40005C44.4363 10.8502 42.45 12.8364 39.9999 12.8364C37.5498 12.8364 35.5636 10.8502 35.5636 8.40005C35.5636 5.94992 37.5498 3.96369 39.9999 3.96369C42.45 3.96369 44.4363 5.94992 44.4363 8.40005ZM23.3815 49.4168V39.6285C23.3817 39.619 23.3819 39.6095 23.3819 39.5999L23.3817 39.5813L23.3815 39.5712V30.7883L39.0178 38.6065V57.9457L23.3815 49.4168ZM40.9814 57.9457L56.6178 49.4168V30.7883L40.9814 38.6065V57.9457ZM39.9996 36.902L55.4042 29.1997L39.9996 21.4974L24.5951 29.1997L39.9996 36.902ZM10.4 44.0362C12.8501 44.0362 14.8363 42.0499 14.8363 39.5998C14.8363 37.1497 12.8501 35.1635 10.4 35.1635C7.94986 35.1635 5.96363 37.1497 5.96363 39.5998C5.96363 42.0499 7.94986 44.0362 10.4 44.0362ZM69.5998 44.0362C72.05 44.0362 74.0362 42.0499 74.0362 39.5998C74.0362 37.1497 72.05 35.1635 69.5998 35.1635C67.1497 35.1635 65.1635 37.1497 65.1635 39.5998C65.1635 42.0499 67.1497 44.0362 69.5998 44.0362ZM44.4363 71.6001C44.4363 74.0502 42.45 76.0364 39.9999 76.0364C37.5498 76.0364 35.5636 74.0502 35.5636 71.6001C35.5636 69.1499 37.5498 67.1637 39.9999 67.1637C42.45 67.1637 44.4363 69.1499 44.4363 71.6001Z" fill="url(#paint0_linear_119_544)"/>
<defs>
<linearGradient id="paint0_linear_119_544" x1="4" y1="12.6876" x2="79.2775" y2="73.9742" gradientUnits="userSpaceOnUse">
<stop stop-color="#1E74EC"/>
<stop offset="1" stop-color="#002984"/>
</linearGradient>
</defs>
</svg>
