<svg width="80" height="80" viewBox="0 0 80 80" fill="none" xmlns="http://www.w3.org/2000/svg">
<path d="M54.9559 65.2584H75.3576C75.8637 59.86 75.2058 49.063 68.5255 49.063H54.1022C50.8482 49.063 48.9891 51.0184 47.9268 53.6903M54.9559 65.2584C55.0378 66.9636 54.9835 68.5821 54.8613 69.8857H26.0146C26.0146 68.5616 26.0146 66.9481 26.1175 65.2584M54.9559 65.2584C54.6984 59.9023 53.0963 53.6903 48.0292 53.6903H47.9268M47.9268 53.6903H33.6058C32.9253 53.6903 32.3058 53.7758 31.7418 53.9355M31.7418 53.9355C30.7194 51.144 28.9474 49.063 26.0146 49.063H11.5912C4 49.063 4 59.7057 4 65.2584H26.1175M31.7418 53.9355C27.5148 55.1327 26.4076 60.4977 26.1175 65.2584M26.6511 36.7083C26.6511 41.7683 22.5127 45.8703 17.4078 45.8703C12.3029 45.8703 8.16457 41.7683 8.16457 36.7083C8.16457 31.6483 12.3029 27.5463 17.4078 27.5463C22.5127 27.5463 26.6511 31.6483 26.6511 36.7083ZM49.7592 41.2893C49.7592 46.3493 45.6209 50.4513 40.5159 50.4513C35.411 50.4513 31.2727 46.3493 31.2727 41.2893C31.2727 36.2293 35.411 32.1273 40.5159 32.1273C45.6209 32.1273 49.7592 36.2293 49.7592 41.2893ZM71.3268 36.7083C71.3268 41.7683 67.1884 45.8703 62.0835 45.8703C56.9786 45.8703 52.8403 41.7683 52.8403 36.7083C52.8403 31.6483 56.9786 27.5463 62.0835 27.5463C67.1884 27.5463 71.3268 31.6483 71.3268 36.7083ZM38.0304 17.1226H31.6654C31.6168 17.1226 31.5966 17.1848 31.6359 17.2133L36.7853 20.9546C36.8029 20.9674 36.8102 20.99 36.8035 21.0106L34.8366 27.0641C34.8216 27.1103 34.8745 27.1487 34.9138 27.1202L40.0632 23.3789C40.0807 23.3661 40.1045 23.3661 40.1221 23.3789L45.2715 27.1202C45.3108 27.1487 45.3637 27.1103 45.3486 27.0641L43.3817 21.0106C43.375 20.99 43.3824 20.9674 43.4 20.9546L48.5494 17.2133C48.5887 17.1848 48.5685 17.1226 48.5199 17.1226H42.1549C42.1332 17.1226 42.1139 17.1087 42.1072 17.088L40.1403 11.0345C40.1253 10.9883 40.06 10.9883 40.045 11.0345L38.0781 17.088C38.0713 17.1087 38.0521 17.1226 38.0304 17.1226Z" stroke="url(#paint0_linear_119_217)" stroke-width="1.95867"/>
<defs>
<linearGradient id="paint0_linear_119_217" x1="4" y1="19.2807" x2="63.5098" y2="81.3695" gradientUnits="userSpaceOnUse">
<stop stop-color="#1E74EC"/>
<stop offset="1" stop-color="#002984"/>
</linearGradient>
</defs>
</svg>
